/* XPM */
static char * collectible_xpm[] = {
"64 64 493 2",
"  	c None",
". 	c #EDD293",
"+ 	c #E6C98C",
"@ 	c #EBCE91",
"# 	c #E9C788",
"$ 	c #E3C385",
"% 	c #EBCC8C",
"& 	c #F1CF90",
"* 	c #F1CE8C",
"= 	c #F3D392",
"- 	c #F2D18F",
"; 	c #E4C689",
"> 	c #DDC185",
", 	c #DCBD82",
"' 	c #E1BE82",
") 	c #F8D694",
"! 	c #E5CD91",
"~ 	c #DDC48A",
"{ 	c #F4DB9A",
"] 	c #EDD698",
"^ 	c #EBC887",
"/ 	c #EED08F",
"( 	c #E9C686",
"_ 	c #FDE09D",
": 	c #F9D996",
"< 	c #D5BC83",
"[ 	c #DCBB7F",
"} 	c #E1BD7E",
"| 	c #EEDA9A",
"1 	c #E5D294",
"2 	c #EDD997",
"3 	c #D7BF88",
"4 	c #D8B77D",
"5 	c #D6B87F",
"6 	c #F1D698",
"7 	c #92603B",
"8 	c #956E2A",
"9 	c #A37538",
"0 	c #7B3930",
"a 	c #956730",
"b 	c #6E3935",
"c 	c #CCB37D",
"d 	c #945333",
"e 	c #B37825",
"f 	c #AD6524",
"g 	c #914A2F",
"h 	c #6C2F37",
"i 	c #F5D996",
"j 	c #DACB90",
"k 	c #573113",
"l 	c #995432",
"m 	c #854732",
"n 	c #A05C25",
"o 	c #BA7C24",
"p 	c #9A542C",
"q 	c #813C34",
"r 	c #7B3835",
"s 	c #5F2638",
"t 	c #4A2624",
"u 	c #562E1C",
"v 	c #DEC98E",
"w 	c #A37A3B",
"x 	c #A08234",
"y 	c #884F30",
"z 	c #924E2B",
"A 	c #955229",
"B 	c #AB6C29",
"C 	c #7F4336",
"D 	c #572434",
"E 	c #662C36",
"F 	c #482425",
"G 	c #573018",
"H 	c #D4B57C",
"I 	c #F1C984",
"J 	c #763535",
"K 	c #85492D",
"L 	c #55272F",
"M 	c #682D3A",
"N 	c #834723",
"O 	c #8B4434",
"P 	c #9C542A",
"Q 	c #773735",
"R 	c #78343C",
"S 	c #642B34",
"T 	c #6A2F34",
"U 	c #442423",
"V 	c #80422C",
"W 	c #97602A",
"X 	c #AC7324",
"Y 	c #723829",
"Z 	c #6C3431",
"` 	c #6F3727",
" .	c #7B353C",
"..	c #7A3340",
"+.	c #A36430",
"@.	c #763E31",
"#.	c #5B2635",
"$.	c #8B4437",
"%.	c #542333",
"&.	c #462424",
"*.	c #543416",
"=.	c #4C242B",
"-.	c #5E2836",
";.	c #6A3233",
">.	c #8F533D",
",.	c #954E2F",
"'.	c #B07E2E",
").	c #9D6033",
"!.	c #9D6730",
"~.	c #924E28",
"{.	c #9C5724",
"].	c #A05924",
"^.	c #9F5729",
"/.	c #934C33",
"(.	c #89453B",
"_.	c #6D3237",
":.	c #7F3B34",
"<.	c #773240",
"[.	c #934D33",
"}.	c #672C38",
"|.	c #3B2419",
"1.	c #362414",
"2.	c #602739",
"3.	c #77333F",
"4.	c #844D2D",
"5.	c #63283A",
"6.	c #5F2B34",
"7.	c #66342E",
"8.	c #3E231E",
"9.	c #6B322D",
"0.	c #79333E",
"a.	c #84433B",
"b.	c #955C36",
"c.	c #63273C",
"d.	c #74372E",
"e.	c #6A2E37",
"f.	c #75313F",
"g.	c #975033",
"h.	c #5F263A",
"i.	c #4C2626",
"j.	c #6A372E",
"k.	c #562D21",
"l.	c #552A27",
"m.	c #3E2420",
"n.	c #813B38",
"o.	c #A6692E",
"p.	c #6E2B40",
"q.	c #934D34",
"r.	c #986037",
"s.	c #59292F",
"t.	c #723530",
"u.	c #945035",
"v.	c #874432",
"w.	c #924A2A",
"x.	c #804233",
"y.	c #40241D",
"z.	c #562334",
"A.	c #A66A29",
"B.	c #793A31",
"C.	c #7F3A37",
"D.	c #8B4833",
"E.	c #5E2B2F",
"F.	c #613C15",
"G.	c #6B2F37",
"H.	c #814637",
"I.	c #9B5524",
"J.	c #9C552A",
"K.	c #A96B28",
"L.	c #834533",
"M.	c #4B2429",
"N.	c #D4C48A",
"O.	c #5B2831",
"P.	c #5B2535",
"Q.	c #934F31",
"R.	c #723636",
"S.	c #6A2C38",
"T.	c #9E5A30",
"U.	c #6A2A3E",
"V.	c #5D2C2D",
"W.	c #6C401E",
"X.	c #74313D",
"Y.	c #A4682F",
"Z.	c #965130",
"`.	c #924B2F",
" +	c #98522D",
".+	c #C69E33",
"++	c #71303A",
"@+	c #51242D",
"#+	c #623221",
"$+	c #642A38",
"%+	c #62253E",
"&+	c #7D393B",
"*+	c #42241F",
"=+	c #5E243B",
"-+	c #7F373D",
";+	c #9F602C",
">+	c #73313C",
",+	c #653129",
"'+	c #F9DC9B",
")+	c #592437",
"!+	c #773C33",
"~+	c #AF853B",
"{+	c #965D2F",
"]+	c #854233",
"^+	c #8C4634",
"/+	c #9E6834",
"(+	c #B88B3A",
"_+	c #692B3C",
":+	c #4B232A",
"<+	c #603A19",
"[+	c #703633",
"}+	c #5F2537",
"|+	c #9B5B2F",
"1+	c #552532",
"2+	c #5B2437",
"3+	c #672443",
"4+	c #813C3D",
"5+	c #A06530",
"6+	c #612837",
"7+	c #62322A",
"8+	c #382416",
"9+	c #672C39",
"0+	c #996538",
"a+	c #C49734",
"b+	c #9B6131",
"c+	c #8B4534",
"d+	c #954F34",
"e+	c #B8943E",
"f+	c #9E652B",
"g+	c #6D2D3C",
"h+	c #56292D",
"i+	c #492527",
"j+	c #422520",
"k+	c #652D35",
"l+	c #A17234",
"m+	c #B0883E",
"n+	c #62263A",
"o+	c #813A3A",
"p+	c #813A39",
"q+	c #A5702E",
"r+	c #814831",
"s+	c #5A2731",
"t+	c #622B32",
"u+	c #472721",
"v+	c #753A32",
"w+	c #B1883A",
"x+	c #C5A241",
"y+	c #A36D32",
"z+	c #965133",
"A+	c #A76B26",
"B+	c #BE9032",
"C+	c #915536",
"D+	c #5A2437",
"E+	c #482428",
"F+	c #5F2639",
"G+	c #A16B33",
"H+	c #BC9133",
"I+	c #75303F",
"J+	c #863E35",
"K+	c #A36A2D",
"L+	c #875F2F",
"M+	c #60243C",
"N+	c #5F2A33",
"O+	c #472422",
"P+	c #492C24",
"Q+	c #492F24",
"R+	c #CEB880",
"S+	c #C7AE7B",
"T+	c #CCAE76",
"U+	c #692E34",
"V+	c #7A403B",
"W+	c #AC742E",
"X+	c #8A453D",
"Y+	c #954F33",
"Z+	c #954F32",
"`+	c #A1763D",
" @	c #9B692E",
".@	c #672A3A",
"+@	c #622C32",
"@@	c #472C22",
"#@	c #5A3924",
"$@	c #543C24",
"%@	c #4E3B2A",
"&@	c #462422",
"*@	c #5E2933",
"=@	c #A06031",
"-@	c #793141",
";@	c #843D37",
">@	c #96522A",
",@	c #92643C",
"'@	c #5E2735",
")@	c #50242E",
"!@	c #3D241C",
"~@	c #442F20",
"{@	c #4D4829",
"]@	c #4D4029",
"^@	c #51432D",
"/@	c #53272D",
"(@	c #73323A",
"_@	c #B0903E",
":@	c #A4682D",
"<@	c #904A35",
"[@	c #8E4938",
"}@	c #8D4B39",
"|@	c #90603B",
"1@	c #5C2635",
"2@	c #241420",
"3@	c #3B211E",
"4@	c #443620",
"5@	c #524A2F",
"6@	c #50432C",
"7@	c #592534",
"8@	c #884730",
"9@	c #75313E",
"0@	c #702847",
"a@	c #7D363E",
"b@	c #783144",
"c@	c #7C432F",
"d@	c #5A2534",
"e@	c #5F2D2D",
"f@	c #11121C",
"g@	c #392319",
"h@	c #472D23",
"i@	c #534730",
"j@	c #4D3D29",
"k@	c #F7EAA8",
"l@	c #5E2F28",
"m@	c #8D4D33",
"n@	c #AA7739",
"o@	c #8F4832",
"p@	c #8A4230",
"q@	c #924C36",
"r@	c #854634",
"s@	c #702E3C",
"t@	c #4E242D",
"u@	c #1F141E",
"v@	c #391F1F",
"w@	c #41381E",
"x@	c #564E33",
"y@	c #4E3F29",
"z@	c #61253E",
"A@	c #9A5329",
"B@	c #7B3340",
"C@	c #7B3540",
"D@	c #773D31",
"E@	c #63243F",
"F@	c #492429",
"G@	c #3C2419",
"H@	c #452C21",
"I@	c #534B31",
"J@	c #575334",
"K@	c #4E452A",
"L@	c #522531",
"M@	c #B27A2E",
"N@	c #9A5225",
"O@	c #924B2D",
"P@	c #8D4737",
"Q@	c #7C3D32",
"R@	c #4C2A1C",
"S@	c #493021",
"T@	c #433C20",
"U@	c #4F472B",
"V@	c #A76D29",
"W@	c #8A4332",
"X@	c #823B39",
"Y@	c #722A46",
"Z@	c #7A3E33",
"`@	c #582435",
" #	c #402716",
".#	c #402D1D",
"+#	c #50482C",
"@#	c #50462C",
"##	c #995125",
"$#	c #8D4530",
"%#	c #843D38",
"&#	c #7B3440",
"*#	c #915030",
"=#	c #61243D",
"-#	c #422914",
";#	c #473122",
">#	c #955A2F",
",#	c #B07B35",
"'#	c #97502E",
")#	c #712E3F",
"!#	c #79353A",
"~#	c #4D2429",
"{#	c #30240C",
"]#	c #612C30",
"^#	c #98512F",
"/#	c #8E4734",
"(#	c #854142",
"_#	c #612A33",
":#	c #4D2B1A",
"<#	c #9C6525",
"[#	c #965433",
"}#	c #762F43",
"|#	c #6E2549",
"1#	c #753D29",
"2#	c #31240F",
"3#	c #68371C",
"4#	c #964F30",
"5#	c #853E38",
"6#	c #752E43",
"7#	c #652B36",
"8#	c #4A291C",
"9#	c #AC6F28",
"0#	c #964F2F",
"a#	c #712A45",
"b#	c #6D3532",
"c#	c #884138",
"d#	c #7C353F",
"e#	c #72303A",
"f#	c #42241E",
"g#	c #432422",
"h#	c #98542A",
"i#	c #7E373C",
"j#	c #632440",
"k#	c #262402",
"l#	c #8E4D2D",
"m#	c #904931",
"n#	c #71352F",
"o#	c #4C2428",
"p#	c #3C241E",
"q#	c #6E372C",
"r#	c #623621",
"s#	c #572B24",
"t#	c #3F241C",
"u#	c #944C2E",
"v#	c #7B3F26",
"w#	c #632A36",
"x#	c #422420",
"y#	c #A0582B",
"z#	c #84432E",
"A#	c #66302C",
"B#	c #3E2617",
"C#	c #864530",
"D#	c #4F2922",
"E#	c #432423",
"F#	c #6B3B24",
"G#	c #884430",
"H#	c #5D2B2D",
"I#	c #30240E",
"J#	c #763E33",
"K#	c #4E252A",
"L#	c #342411",
"M#	c #683326",
"N#	c #502C1A",
"O#	c #4B2C1D",
"P#	c #4D2A20",
"Q#	c #392417",
"R#	c #46281D",
"S#	c #502D16",
"T#	c #894530",
"U#	c #D2B780",
"V#	c #56292C",
"W#	c #5D2C2B",
"X#	c #3E241F",
"Y#	c #945131",
"Z#	c #763437",
"`#	c #41241E",
" $	c #3D241E",
".$	c #412321",
"+$	c #3E241B",
"@$	c #65302D",
"#$	c #452424",
"$$	c #412424",
"%$	c #8E482F",
"&$	c #874332",
"*$	c #572A2C",
"=$	c #94502C",
"-$	c #67302F",
";$	c #39241A",
">$	c #3A231E",
",$	c #95532A",
"'$	c #723433",
")$	c #56292B",
"!$	c #944F2D",
"~$	c #64302C",
"{$	c #79471E",
"]$	c #60331B",
"^$	c #3E2321",
"/$	c #924E2A",
"($	c #7F3D31",
"_$	c #452327",
":$	c #53282C",
"<$	c #944E34",
"[$	c #6E3330",
"}$	c #49232A",
"|$	c #9C562D",
"1$	c #482426",
"2$	c #70362A",
"3$	c #582C27",
"4$	c #402422",
". + @ @ . + + # $ # # % % & * = - ; > , ' + $ + = ) = ! ~ + # - { { ) - % + # . % @ + + ; # # @ ] & @ + % ^ % / . . = # $ $ * = ",
"% + @ % + . / . + $ ' ( - ) _ : ) % # , > < < > @ ) & + % % % + + . { % # $ + + + # + ; # # ( + % = @ % % = * # . . % ( [ } / % ",
"- - = % + . ^ % . ; > # - - : ) ) - - % + > , # @ % % @ . % + + + ; ! ! + % @ % . + # , ; + @ = - { = & % | = % = / % $ [ ; ! . ",
"= = : % + $ $ ; 1 ; $ $ 2 { = = = ) ) : & @ + % # # + . - % % + ; > ~ ; % . + % @ @ # ; + @ % . = = * @ . + ; $ + ^ + % # - / = ",
"= * = ; ; 3 , > ~ , # . | { # = { = = ) = = @ = ( % + = ) % % ^ % # ~ + / . / % @ @ % # % + % + = % = = . + $ ; [ ' > } % = - - ",
"= % . + ; 4 5 , , < ; + { { 6 = / + % % - * = & # # # % . = 7 = = = @ + . . . - + @ # % . ; # $ $ # . : = % > ~ > > ' ( % / / / ",
"/ + % ! ; $ # + # ; + # . { . . ; ; $ ; # [ , , $ + ; + % 8 9 0 a b . @ . % @ # $ ~ $ ; + > > > $ + . ) ) = / ] + / # ( $ $ . % ",
"% ! % 1 + ^ % % % @ + + % { ] . > > > < 5 c 4 [ , # # + ( d e f g h . - . * . + ' , 3 ; > $ , 5 4 > . % % * % ] / i - % # } 2 ; ",
"; > [ ! % ^ # % % @ @ % + = . . $ j 3 3 [ 5 < 4 > + k l m n o p q r s t u % . + ' ; ; + ; > , c 4 ~ . ( % = | ] ^ - - % % + . + ",
"~ ~ , ! ; # # + . # % @ % = = . + v < > $ % % # ~ ~ + w x y z A B C D E F G . % ^ * . = + ; < H H 4 + > . @ | ] ^ - = . + + ; + ",
"+ ~ $ + % ^ / / @ + + % = @ ) = + ~ ~ + I - - * + # J K L M N O P Q R S T U . % # % . { = % # > 4 H , # . + ! ; ^ / / % v % % / ",
". = * . # % % / % ! + # = = : = + ; ~ % * - % % V W X Y Z `  ...+.@.#.$.%.&.*.; $ + # / . % / $ $ > ; + # 1 ; ' $ ^ ; % v + ; . ",
"= = ^ @ # / . : : . + # + @ & { . + $ =.-.;.>.,.'.).!.~.{.].^./.(._.:.<.[.}.|.; [ $ $ + % / - ( % % % * % 6 % + ; ^ % @ + % % ) ",
"$ + @ # > ; + = . = @ + ; @ % = + $ 3 1.2.3.4.5.6.7.$ 8.9.0.a.b.c.d.e.f.g.h.i.# $ $ } ; # + $ ( % . % % = = % + $ $ ^ * % # @ + ",
"' , + + ; ; $ + % * % % + . @ # $ $ ; + + $ ; > $ , , , ( j.k.l.m.n.o.p.q.r.s.$ $ $ ( % + $ , $ $ # % % & + @ $ $ ^ * * = = % # ",
"' ; + + @ ; , , + % * # % % @ , , $ ; + ; > ~ v % $ , 4 4 + + = * t.u.v.w.x.y.% $ $ ^ ^ % % + $ , < , % & ^ ! ! # ^ * * . % % ; ",
"+ % + ! % + $ > ^ * * ^ ^ / % ( # % # / % # ; 1 * ( $ 4 H , # ) * z.A.B.C.D.E.F.# $ % # / . = % ' , > + . % % . / % % ( ( + ! # ",
"( = = 2 . % @ % - * * ^ % ; ^ % % $ % % - % @ = - % ( $ < > , ! G.H.I.J.K.L.M.= % ( # # + + . = % ' 3 $ + + = - = = / # ( . % ^ ",
"$ % * : % @ @ * / ^ ( 1 # % ( # + ; $ $ i . % ; $ # % / $ [ N.O.P.Q.R.S.T.U.V.W.+ / % + + ; ~ / % + % $ ~ > > $ - . % + % / / % ",
". % * ) = @ ; + $ > 4 v + % / ^ % + + % = { / ; > $ ( . $ , D X.Y.Z.`. +.+++@++ > ! + . . ; , ; % = * % > c 5 [ % % = % i ) ) - ",
"= ^ * * = . + # > $ [ ; ; + % * * * & @ - { . ; , , $ 1 ~ #+$+%+&+*+=+-+;+>+,+# # ! @ : : = + ~ ! ) '+% $ , 4 [ $ / / + . * - = ",
") ) = * @ . . # $ $ ~ ~ ~ $ # = = = = & ) { _ '+- * > , N.)+!+~+{+]+^+/+(+_+:+<+. . + = '+: = ; + . 6 . # # $ > ~ + / + ; - - : ",
". = & ^ % @ ] # # % . @ ~ , > + * * . % + % . | = - + $ + [+}+|+1+2+3+4+5+6+7+% . + % @ % . . % + ! + + # % # ^ + / ; $ ' - / '+",
"] ) 6 ^ + + . % ( + % ! ; ; > > , $ + ' $ , v 1 ( % + % 8+9+0+a+b+c+d+e+f+g+h+i+, 3 ; , $ v > 3 , ! + @ % * % # + / + } [ % % i ",
"= = 6 % ! % . % ( % . . % % ( > 4 < ~ , < < < ~ , , # + j+k+l+m+n+o+p+q+r+s+t+3 4 < , ; , j 3 3 > + % + + * * * % ; # $ , + ^ : ",
") { '+= . . . % + ; # % . % % $ [ H v ; $ $ # ~ 3 < [ $ u+v+w+x+y+z+A+B+C+g+D+' , , > , ! ! ~ > > $ + + - - - % % + % + # ; # . ",
": = = = = 6 @ ' < < , % . = % % % % + @ % % - . $ > $ $ E+F+G+H+I+..J+K+L+M+N+O+P+Q++ + | { { . + , # # % % + % # # $ % % % % = ",
"= + + @ = 6 + , R+S+T+, + % = = = = - = = = - - # $ $ $ # U+V+W+X+Y+Z+`+ @.@+@@@#@$@%@= ] { = = . ; > # % * + $ [ # + . / + % % ",
"% $ ; + % = @ 3 c S+H < + + . = = ) * % . . % % % $ ; % - &@*@=@-@;@;@>@,@'@)@!@~@{@]@^@'+{ = = @ % > > $ ; ~ 3 , ( 2 . + $ > > ",
"~ ; + + # @ . # > 3 $ $ ; $ @ % / _ = % ( % % % % , $ % * /@(@_@:@<@[@}@|@1@)@2@3@4@5@6@% * . = % % > , ; % % $ $ $ + / + > < ~ ",
"] . . % # # + ; > % . % # $ $ # / i . % , + # - . . % % - I 7@8@9@0@a@b@c@d@e@f@g@h@i@j@# # % % % + $ ' + % % + % + % + + $ > % ",
"k@6 = = + + , + # . @ . + % > + . = . + + ^ / { | = . % I ^ l@m@n@o@p@q@r@s@t@u@v@w@x@y@$ % % = % ; # ( % 6 % % ! # + 1 + ; % = ",
"{ 6 ) - % + $ . @ % + + $ # # . 6 . / % % ^ % % = . = $ $ ( * z@A@B@o+C@D@E@F@G@H@I@J@K@% = * = - + $ , ' ; > + = ) = ! ; # + = ",
"! . { % % $ + + + ; + $ # % $ % % = % % * = % % . . / $ } } ! L@M@N@O@P@Q@3+R@S@T@K@U@$ * ) _ : = % # ' ~ < , > @ ) = + + % + # ",
"+ ; ! % ( + . & = + + , ~ + . / = { . / ^ _ = % = / + $ [ ; / G@V@W@X@Y@Z@`@ #.#+#@#, # = = : = ) - - % ; > , # @ % % % . % # + ",
"# > ~ + % . + + . @ # ; % % % @ & = / . + + ; $ + ^ % % # - / = ##$#%#&#*#=#-## ;#; $ # . { = = ) - ) '+= @ ; % % # + . = % + + ",
"% + ~ # @ ] @ * @ @ % ^ / + @ % = % = = - % $ ~ [ } > } % = * - >#,#'#)#!#~#{#> ; , $ . | { + = { = - ) = - . - $ % + = ) % % % ",
"= . @ + . . . % + @ ^ + % # $ ~ $ # . ) = * > ~ > > $ $ % % / / ]#^#/#o+(#_#:#, , < ~ + { '+6 = % % % % - * = - ( + $ % . = = - ",
") { . @ @ @ @ ( ; ~ $ ; + > > > $ + | ) = = ! 2 % % # $ $ ( . % / <#[#}#|#1#2#; # ; + + . { . . % $ # ; # [ , > $ + $ % % % ^ . ",
"+ % . * = & @ + , , , ; > > , 5 4 > . % % / / . - ) - % # $ 1 + + 3#4#5#6#7#8#% * & + + % 6 . . $ 3 3 < 5 c 5 5 , # # % ( % $ 1 ",
"~ + @ * = & . + } ; ; + ; ~ , 5 4 > . # % / | | % - - % % % . + $ ~ 9#0#}#a#F@( % @ + + % = . @ $ j 3 3 [ [ 5 4 ~ # @ - I % 4 N.",
"N.+ @ ^ $ + @ * # % / . + ; [ c H 4 ; , . / | . * - = % + % ; ; ~ ~ b#c#d#e#f#g#. ; % . & . = . + ~ < > $ % % ( > ~ ; % # ; , < ",
"# % % # ; ! @ @ # % . : . % ; > H 4 , # . + 1 v # % @ + ~ @ + . + ; $ h#i#j#f#k#@ + + % = & = = + ~ ~ % % - - % + % + % $ $ $ > ",
"+ * * * . = + + $ + ( / . - / $ $ > ; + % @ ; > $ ^ # @ v + # . . = * l#m#n#o#p#% + + % . = ) : + ; > % * - % % + % % @ + # # ; ",
"# % % = . . @ ; , $ > + % % % ( / % % * % . % + ; ( % & # % / ) - = % @ q#r#s#t#) . + + + @ & { . + $ % % / + # ; / % / : - + $ ",
"; - % ! + @ + ; $ ( } + # % ( # % . % ^ . = * + # $ ^ % % # 1 + $ + @ # u#v#w#x#. { % # ; @ % . + ; > ~ % 1 # > > ; ; + = ) % ; ",
"^ 2 + v + / + ; ' ' ( % + ; , $ # ; % % = % + ; $ ^ * * - = % ; ' , + ; y#z#A#B#% * % % + @ % # > $ $ + + ; $ > ; > > [ # 2 / ^ ",
"- % $ j % % % + $ ( ^ % % + # $ , < , + & % + ! ( ^ * % = % % ; $ ; ! # C#D#1.E#+ * * # % @ @ $ , > # + + > ~ ; + $ [ 4 4 + % - ",
"% % + % + . % % + # % # % . . % $ , > + = % % @ @ * % ( # / + ^ % % + ! F#G#H#I#^ * * % % % + ( ( + % % + $ + . * ( $ [ c , + ) ",
"$ ^ . + + % % = % % # # + + = = % , , > @ % = - ) = % # ; . % ( $ = . { J#O K#L#- * I % # ( % % % # % % = % @ = = * # $ , > , + ",
", $ + % % % ! % + @ + + + + $ . @ % + # ~ > > $ * . % + % . M#N#E#% @ ) O#P#Q#% % * ( % + % ^ ^ + ; $ $ i . + ; $ ( % % ; , ~ ' ",
"< > # . * @ @ ; $ + + . @ ; , ; + - - % , H R+< # . = % R#S#) - / ^ = ) z#T#&.# $ $ < ~ + % % ^ % # + % : { @ ; ~ , ( . $ , U#, ",
"$ ; # = = . # # + @ @ : : . + ~ + = '+. ' < 4 , $ % % V#W#X#- ) = % * - Y#Z#`## $ $ [ ~ + + @ * * - @ @ * { . ; , , $ ! ~ $ , ; ",
"+ + % = ) - & * . . + . : : . # + . = . ^ # > , ; % +  $2#- % { = ) - * .$+$. % $ > ~ ; ~ # ; @ * = = * ) '+_ { - % > 3 3 @ ~ + ",
". @ # @ % ^ * % @ @ % % / . . % + ! + + # * % ( + . ; @$#$$$/ '+. = % %$&$U i # ; % . / > , $ + * = = % % % @ { - ) + $ + @ . @ ",
"= ! $ j % ( ( $ , 3 > > ; v > > > ! + % % * % ( + @ + *$=$-$;$: 6 = >$,$'$+$. % ^ + + + ; + , , [ > + ' ; , ~ 1 # % % + % % . = ",
": . + 1 ~ [ > > H < ; > , j 3 3 , + + % + = = % % # + )$!$~${$]$^$/$($_$@ # . % % + = = % % # > 4 < ~ , < < 3 ~ [ > # % % } + / ",
". ! + + > 4 5 > , , > ' 1 j $ N.> ; + + % * = * % + % + # :$<$[$}$|$e.1$. . . % + > $ % . % % + < < ~ ; $ > # j < 4 ' $ [ H < % ",
"% + + + ; [ > ; ( + + + 2 { 6 = + , $ # * % + # $ ; # % % % 2$3$4$= = = { = % > N.< [ % - = % % % % % % % * * . $ > $ } [ < > $ ",
", [ + % % ; # + + + * = 6 '+& = . $ , # = % + $ , # + / % + + % = + + @ . 6 % , c c T+3 + + & = ) - - = = - = / + $ ~ } ; ; , , ",
"< 4 $ / % + # # ; ; ^ = { '+= = @ + , ~ , + ~ , [ # . . + > > > + ; ; % % = @ , U#S+H , # + = = = : - % . / % % % $ $ % = - - $ ",
"[ 3 # = @ ! # $ N.< $ & % * . = * * $ , ; % % # $ $ + . + > , ~ ~ ; ! + $ % . + , , ; , ; ; + % - '+= % ( ! % % # > $ % * - = / ",
"% + . = @ ~ , # $ [ ' # $ % ! % # + $ ' + + % + % + + + # > ~ + . . @ % + # + ; , + . @ + $ $ $ % = = + } # % % . . % % - I : i ",
"= + . . @ + . + ( ^ ( % $ % * = % + + # * 6 % + @ + % 1 + # + : k@6 = = # # , ! ; = = & + + $ 1 ] = . % + ^ / { | | = I * ^ - . "};
