/* XPM */
static char * crab_xpm[] = {
"64 64 471 2",
"  	c None",
". 	c #EDD293",
"+ 	c #E6C98C",
"@ 	c #EBCE91",
"# 	c #E9C788",
"$ 	c #E3C385",
"% 	c #EBCC8C",
"& 	c #F1CF90",
"* 	c #F1CE8C",
"= 	c #F3D392",
"- 	c #F2D18F",
"; 	c #E4C689",
"> 	c #DDC185",
", 	c #DCBD82",
"' 	c #E1BE82",
") 	c #F8D694",
"! 	c #E5CD91",
"~ 	c #DDC48A",
"{ 	c #F4DB9A",
"] 	c #EDD698",
"^ 	c #EBC887",
"/ 	c #EED08F",
"( 	c #E9C686",
"_ 	c #FDE09D",
": 	c #F9D996",
"< 	c #D5BC83",
"[ 	c #DCBB7F",
"} 	c #E1BD7E",
"| 	c #EEDA9A",
"1 	c #E5D294",
"2 	c #EDD997",
"3 	c #D7BF88",
"4 	c #D8B77D",
"5 	c #D6B87F",
"6 	c #F1D698",
"7 	c #CCB37D",
"8 	c #F5D996",
"9 	c #DACB90",
"0 	c #F1C984",
"a 	c #D4C48A",
"b 	c #DEC98E",
"c 	c #D4B57C",
"d 	c #730100",
"e 	c #730000",
"f 	c #991817",
"g 	c #B32423",
"h 	c #C42A29",
"i 	c #C52A2A",
"j 	c #C22A29",
"k 	c #AF2221",
"l 	c #850D0C",
"m 	c #8C1111",
"n 	c #B12322",
"o 	c #C12928",
"p 	c #B02221",
"q 	c #921514",
"r 	c #740101",
"s 	c #C82C2B",
"t 	c #D3302F",
"u 	c #C72C2A",
"v 	c #901413",
"w 	c #780403",
"x 	c #790504",
"y 	c #CC2E2C",
"z 	c #8E1212",
"A 	c #730101",
"B 	c #B22322",
"C 	c #C62B2A",
"D 	c #931514",
"E 	c #A21C1C",
"F 	c #B42423",
"G 	c #A11C1B",
"H 	c #9C1A19",
"I 	c #CB2D2C",
"J 	c #A51E1D",
"K 	c #B62524",
"L 	c #B92625",
"M 	c #C22A28",
"N 	c #AE2121",
"O 	c #7C0606",
"P 	c #BB2726",
"Q 	c #AD2220",
"R 	c #7E0808",
"S 	c #BF2928",
"T 	c #B82625",
"U 	c #C02928",
"V 	c #BD2827",
"W 	c #B52423",
"X 	c #7F0908",
"Y 	c #BE2827",
"Z 	c #971716",
"` 	c #CA2D2C",
" .	c #961716",
"..	c #BC2726",
"+.	c #7B0605",
"@.	c #7A0504",
"#.	c #C72B2A",
"$.	c #AC2120",
"%.	c #88100F",
"&.	c #A31D1C",
"*.	c #9B1918",
"=.	c #A21D1C",
"-.	c #89100F",
";.	c #C32A29",
">.	c #7B0505",
",.	c #D3312F",
"'.	c #760202",
").	c #7A0505",
"!.	c #CD2E2D",
"~.	c #921414",
"{.	c #9A1818",
"].	c #9C1919",
"^.	c #AD2120",
"/.	c #BD2926",
"(.	c #D12F2E",
"_.	c #A41D1D",
":.	c #A71F1E",
"<.	c #D2302F",
"[.	c #B82824",
"}.	c #9A1C15",
"|.	c #DB3630",
"1.	c #CB2F2C",
"2.	c #D02F2E",
"3.	c #8B1110",
"4.	c #8C1110",
"5.	c #CC302C",
"6.	c #DB3730",
"7.	c #991B15",
"8.	c #F9DC9B",
"9.	c #CC3329",
"0.	c #C52F2A",
"a.	c #B62A25",
"b.	c #CE2E2D",
"c.	c #911413",
"d.	c #911414",
"e.	c #B72524",
"f.	c #CF2F2D",
"g.	c #DC3730",
"h.	c #C83128",
"i.	c #E63D32",
"j.	c #AE2822",
"k.	c #C82D2C",
"l.	c #A61E1D",
"m.	c #941615",
"n.	c #C62D2B",
"o.	c #AF2822",
"p.	c #C62F2A",
"q.	c #E53D31",
"r.	c #971A14",
"s.	c #EB3F33",
"t.	c #A52320",
"u.	c #CE2F2E",
"v.	c #C52B2A",
"w.	c #9F1B1A",
"x.	c #CD2F2D",
"y.	c #EC4033",
"z.	c #921711",
"A.	c #A7221B",
"B.	c #921E1A",
"C.	c #7C1210",
"D.	c #7C1211",
"E.	c #951F1B",
"F.	c #AF2923",
"G.	c #9C1D16",
"H.	c #CEB880",
"I.	c #B42920",
"J.	c #941F1B",
"K.	c #7D1210",
"L.	c #AF261E",
"M.	c #B3281F",
"N.	c #931E1A",
"O.	c #7C110F",
"P.	c #DC3830",
"Q.	c #A7231B",
"R.	c #9B1D16",
"S.	c #EA3F33",
"T.	c #DF3931",
"U.	c #CA312B",
"V.	c #AD2822",
"W.	c #931E1B",
"X.	c #7A0F0E",
"Y.	c #9D7B7B",
"Z.	c #E0D9D9",
"`.	c #EBE7E7",
" +	c #D9CFCF",
".+	c #916767",
"++	c #946A6A",
"@+	c #DBD2D2",
"#+	c #DFD7D7",
"$+	c #9B7676",
"%+	c #7C100E",
"&+	c #AF2823",
"*+	c #CB322B",
"=+	c #EB4033",
"-+	c #991B14",
";+	c #8C140F",
">+	c #EF4134",
",+	c #ED4034",
"'+	c #E43D32",
")+	c #DD3930",
"!+	c #D4332F",
"~+	c #C72F2B",
"{+	c #971B17",
"]+	c #9A7676",
"^+	c #FBFAFA",
"/+	c #F7F6F6",
"(+	c #E7E6E6",
"_+	c #FBFBFB",
":+	c #F5F3F3",
"<+	c #B65956",
"[+	c #BE2D24",
"}+	c #CC3328",
"|+	c #BB2C22",
"1+	c #B5615E",
"2+	c #F9F8F8",
"3+	c #FAF9F9",
"4+	c #977070",
"5+	c #991C18",
"6+	c #D4322F",
"7+	c #DE3930",
"8+	c #E33C31",
"9+	c #F04135",
"0+	c #87110D",
"a+	c #F7EAA8",
"b+	c #E03B2F",
"c+	c #EC4034",
"d+	c #DD3830",
"e+	c #D4332E",
"f+	c #C9302B",
"g+	c #BE2E27",
"h+	c #9A1D18",
"i+	c #D8CDCD",
"j+	c #5F5D5D",
"k+	c #000000",
"l+	c #878484",
"m+	c #FFFFFF",
"n+	c #F8C1BF",
"o+	c #F24235",
"p+	c #F9C4C2",
"q+	c #FDFDFD",
"r+	c #656464",
"s+	c #D2C6C6",
"t+	c #9E1F1A",
"u+	c #BD2E27",
"v+	c #C8302B",
"w+	c #D5332F",
"x+	c #DC392E",
"y+	c #911711",
"z+	c #E93F32",
"A+	c #E43D31",
"B+	c #D3322E",
"C+	c #C82F2B",
"D+	c #B32A24",
"E+	c #971C18",
"F+	c #7E0A06",
"G+	c #EFE5E5",
"H+	c #E7E7E7",
"I+	c #FACFCE",
"J+	c #FACECD",
"K+	c #EBEAEA",
"L+	c #E9DADA",
"M+	c #971D18",
"N+	c #E93E32",
"O+	c #8D140F",
"P+	c #860D0D",
"Q+	c #850D0D",
"R+	c #9D1D17",
"S+	c #E23C31",
"T+	c #D3332E",
"U+	c #A72620",
"V+	c #8F1A17",
"W+	c #9E1E17",
"X+	c #F9C3C2",
"Y+	c #FCFCFC",
"Z+	c #8C8C8C",
"`+	c #B1B0B0",
" @	c #F7AFAD",
".@	c #F7B4B2",
"+@	c #999898",
"@@	c #F8BFBE",
"#@	c #E13B30",
"$@	c #921812",
"%@	c #921C18",
"&@	c #A62520",
"*@	c #B42A24",
"=@	c #BF2E28",
"-@	c #860E0D",
";@	c #9B1D17",
">@	c #D9362F",
",@	c #C43128",
"'@	c #F14235",
")@	c #F25B53",
"!@	c #FDECEC",
"~@	c #FCE4E3",
"{@	c #F24E44",
"]@	c #F3564E",
"^@	c #FCE6E5",
"/@	c #F3554D",
"(@	c #B72C25",
"_@	c #A72520",
":@	c #DB372F",
"<@	c #971B15",
"[@	c #860E0E",
"}@	c #740100",
"|@	c #CC2D2C",
"1@	c #A9201F",
"2@	c #901511",
"3@	c #C92E2B",
"4@	c #C92F2B",
"5@	c #CA332A",
"6@	c #F3564D",
"7@	c #F7ACAA",
"8@	c #F9CDCC",
"9@	c #F6A4A1",
"0@	c #F24337",
"a@	c #F2493E",
"b@	c #F6A6A4",
"c@	c #F9CCCB",
"d@	c #F7ABA9",
"e@	c #F2534A",
"f@	c #F04134",
"g@	c #BE2F27",
"h@	c #C82E2A",
"i@	c #8C130F",
"j@	c #A81F1E",
"k@	c #810A0A",
"l@	c #790404",
"m@	c #A4201D",
"n@	c #BB2D26",
"o@	c #C33028",
"p@	c #A31F1C",
"q@	c #941515",
"r@	c #800A09",
"s@	c #A01C1B",
"t@	c #870E0D",
"u@	c #BF2927",
"v@	c #820D09",
"w@	c #E83E32",
"x@	c #E13C30",
"y@	c #8F1312",
"z@	c #7A0605",
"A@	c #CF322B",
"B@	c #C82F29",
"C@	c #CF2F2E",
"D@	c #B52424",
"E@	c #DB3531",
"F@	c #EE4134",
"G@	c #EE4034",
"H@	c #D83330",
"I@	c #B22422",
"J@	c #C12A28",
"K@	c #AA201F",
"L@	c #951616",
"M@	c #760302",
"N@	c #971717",
"O@	c #E43C32",
"P@	c #E83E33",
"Q@	c #E93F33",
"R@	c #E93E33",
"S@	c #E13A31",
"T@	c #951615",
"U@	c #A9201E",
"V@	c #8A100F",
"W@	c #B82525",
"X@	c #C72C2B",
"Y@	c #DA3630",
"Z@	c #D83430",
"`@	c #BB2925",
" #	c #B32523",
".#	c #AB2020",
"+#	c #BA2625",
"@#	c #D5342F",
"##	c #D6352F",
"$#	c #D7342F",
"%#	c #D6342F",
"&#	c #D6332F",
"*#	c #D5352F",
"=#	c #D4312F",
"-#	c #A41D1C",
";#	c #BA2726",
">#	c #AB2120",
",#	c #B32422",
"'#	c #870F0E",
")#	c #840C0C",
"!#	c #8D1211",
"~#	c #880F0E",
"{#	c #B92725",
"]#	c #CC312C",
"^#	c #CD302C",
"/#	c #CD312C",
"(#	c #CB312C",
"_#	c #CD302D",
":#	c #CD312D",
"<#	c #CB302C",
"[#	c #D0302E",
"}#	c #981817",
"|#	c #840D0C",
"1#	c #D1302E",
"2#	c #BB2C26",
"3#	c #C42F29",
"4#	c #C32F29",
"5#	c #C22F29",
"6#	c #B72925",
"7#	c #850C0C",
"8#	c #850E0D",
"9#	c #7B0606",
"0#	c #C82E2B",
"a#	c #BC2D27",
"b#	c #BC2E27",
"c#	c #BB2D27",
"d#	c #C92D2B",
"e#	c #8A1010",
"f#	c #BC2B27",
"g#	c #B22A23",
"h#	c #B12923",
"i#	c #B22A24",
"j#	c #B22923",
"k#	c #C02C28",
"l#	c #A92620",
"m#	c #A82620",
"n#	c #A92621",
"o#	c #A92520",
"p#	c #BA2826",
"q#	c #810909",
"r#	c #AA2220",
"s#	c #9F221E",
"t#	c #9D221D",
"u#	c #9E221E",
"v#	c #A1231F",
"w#	c #A9211F",
"x#	c #870E0E",
"y#	c #810A09",
"z#	c #C22929",
"A#	c #9E1A1A",
"B#	c #BD2A28",
"C#	c #941E1B",
"D#	c #961F1C",
"E#	c #C72D2B",
"F#	c #8E1312",
"G#	c #BF2A29",
"H#	c #8C1B19",
"I#	c #881A17",
"J#	c #901C1A",
"K#	c #C52C2B",
"L#	c #D2B780",
"M#	c #89110F",
"N#	c #AB201F",
"O#	c #8A1917",
"P#	c #7F1614",
"Q#	c #901B19",
"R#	c #C92D2C",
"S#	c #800909",
"T#	c #840C0B",
"U#	c #8C1211",
"V#	c #C92C2B",
"W#	c #750303",
"X#	c #770807",
"Y#	c #780B09",
"Z#	c #780C0B",
"`#	c #780A09",
" $	c #770706",
".$	c #780B0A",
"+$	c #770907",
"@$	c #AB211F",
"#$	c #9D1A19",
"$$	c #770303",
"%$	c #BF2827",
"&$	c #7D0807",
"*$	c #770202",
"=$	c #CCAE76",
"-$	c #C7AE7B",
". + @ @ . + + # $ # # % % & * = - ; > , ' + $ + = ) = ! ~ + # - { { ) - % + # . % @ + + ; # # @ ] & @ + % ^ % / . . = # $ $ * = ",
"% + @ % + . / . + $ ' ( - ) _ : ) % # , > < < > @ ) & + % % % + + . { % # $ + + + # + ; # # ( + % = @ % % = * # . . % ( [ } / % ",
"- - = % + . ^ % . ; > # - - : ) ) - - % + > , # @ % % @ . % + + + ; ! ! + % @ % . + # , ; + @ = - { = & % | = % = / % $ [ ; ! . ",
"= = : % + $ $ ; 1 ; $ $ 2 { = = = ) ) : & @ + % # # + . - % % + ; > ~ ; % . + % @ @ # ; + @ % . = = * @ . + ; $ + ^ + % # - / = ",
"= * = ; ; 3 , > ~ , # . | { # = { = = ) = = @ = ( % + = ) % % ^ % # ~ + / . / % @ @ % # % + % + = % = = . + $ ; [ ' > } % = - - ",
"= % . + ; 4 5 , , < ; + { { 6 = / + % % - * = & # # # % . = = = = = @ + . . . - + @ # % . ; # $ $ # . : = % > ~ > > ' ( % / / / ",
"/ + % ! ; $ # + # ; + # . { . . ; ; $ ; # [ , , $ + ; + % + % / = { . @ . % @ # $ ~ $ ; + > > > $ + . ) ) = / ] + / # ( $ $ . % ",
"% ! % 1 + ^ % % % @ + + % { ] . > > > < 5 7 4 [ , # # + ( % $ ! % % . - . * . + ' , 3 ; > $ , 5 4 > . % % * % ] / 8 - % # } 2 ; ",
"; > [ ! % ^ # % % @ @ % + = . . $ 9 3 3 [ 5 < 4 > + % - 0 % 5 a ~ ; . * . % . + ' ; ; + ; > , 7 4 ~ . ( % = | ] ^ - - % % + . + ",
"~ ~ , ! ; # # + . # % @ % = = . + b < > $ % % # ~ ~ + % ( ; , < a % + # # + . % ^ * . = + ; < c c 4 + > . @ | ] ^ - = . + + ; + ",
"+ ~ $ + % ^ / / @ + + % = @ ) = + ~ ~ + 0 - - d e e + % # $ > > # % * % ; 1 e e # % . { = % # > 4 c , # . + ! ; ^ / / % b % % / ",
". = * . # % % / % ! + # = = : = + ; ~ % e f g h i j k l + ( # $ + % * * m n h i o p q e . % / $ $ > ; + # 1 ; ' $ ^ ; % b + ; . ",
"= = ^ @ # / . : : . + # + @ & { . + r f s t t t t t u v { - w # + x % . f y t t t t t h z / - ( % % % * % 6 % + ; ^ % @ + % % ) ",
"$ + @ # > ; + = . = @ + ; @ % = + A B t t t t t C D e % r E F + # B G ! % e H I t t t t t J e ( % . % % = = % + $ $ ^ * % # @ + ",
"' , + + ; ; $ + % * % % + . @ # e K t t t t t B x , , d n t L * ^ M t N e / % O P t t t t t Q A $ # % % & + @ $ $ ^ * * = = % # ",
"' ; + + @ ; , , + % * # % % @ e k t t t t t E e % $ R S t t T = * U t t V O + % e W t t t t t G e < , % & ^ ! ! # ^ * * . % % ; ",
"+ % + ! % + $ > ^ * * ^ ^ / X Y t t t t t E ; 1 A Z I t t t n ) * g t t t `  .e # e F t t t t t ..+.> + . % % . / % % ( ( + ! # ",
"( = = 2 . % @ % - * * ^ % @.#.t t t t t $.e %.&.M t t t t t f ! $ *.t t t t t o =.-.e L t t t t t ;.>.$ + + = - = = / # ( . % ^ ",
"$ % * : % @ @ * / ^ ( 1 e T t t t t t t ,.t t t t t t t t I '.$ , ).!.t t t t t t t t t t t t t t t W $ ~ > > $ - . % + % / / % ",
". % * ) = @ ; + $ > 4 b ~.t t t t t t t t t t t t t t t t {.4 , < ; ].t t t t t t t t t t t t t t t t v > 7 5 [ % % = % 8 ) ) - ",
"= ^ * * = . + # > $ [ r o t t t t t t t t t t t t t t t ^.e , b , + e g t t t t t t t t t t t t t t t o e , 4 [ $ / / + . * - = ",
") ) = * @ . . # $ $ d /.t t t t t t t t t t t t t t (._.e + $ % + + + e :.<.t t t t t t t t t t t t t t [.e $ > ~ + / + ; - - : ",
". = & ^ % @ ] # # % }.|.1.2.t t t t t t t t t t t o 3.$ + @ . / . . # @ + 4.o t t t t t t t t t t t 2.5.6.7.# ^ + / ; $ ' - / 8.",
"] ) 6 ^ + + . % ( + 9.6.0.a.t t t t t t t t b.K c.e + % % % . = = @ ' 9 # ( A d.e.f.t t t t t t t t a.0.g.h.% # + / + } [ % % 8 ",
"= = 6 % ! % . % ( e i.6.0.j.k.t t t t C l.d.e ~ , , # + + [ + % ) . $ 1 ; , , 3 4 d m.l.#.t t t t n.o.p.g.q.e * % ; # $ , + ^ : ",
") { 8.= . . . % + r.s.6.0.j.t.u.t v.w.e $ $ # ~ 3 < [ $ [ 4 > + = @ ! ; , 4 3 ' , , > , r G C t x.t.o.p.g.y.z.% % + % + # ; # . ",
": = = = = 6 @ ' < A.s.6.0.j.B.C.e A + @ % % - . $ > $ $ [ 5 , ; @ $ + @ ; [ ' + # + + + | { e e D.E.F.0.g.y.G.% # # $ % % % % = ",
"= + + @ = 6 + , H.I.s.6.0.j.J.C.A = - = = = - - # $ $ $ # + > , , < + % + + # + % + % = ] { = e K.J.o.p.g.y.L.$ [ # + . / + % % ",
"% $ ; + % = @ 3 7 M.s.6.0.j.N.O.e ) * % . . % % % e ; % - = % $ < c + / % + e ; ; ~ ^ ) 8.{ = e O.J.F.p.P.y.Q.3 , ( 2 . + $ > > ",
"~ ; + + # @ . # > R.S.T.U.V.W.X.e _ = % ( % % Y.Z.`. +.+* - = @ < > # . ++@+`.#+$+< $ * % * . r %+E.&+*+T.=+-+$ $ $ + / + > < ~ ",
"] . . % # # + ; > ;+>+,+'+)+!+~+{+d . % , + ]+^+/+(+_+:+<+[+}+}+}+}+|+1+2+3+(+3+_+4+$ # # # e 5+0.6+7+8+y.9+0++ % + % + + $ > % ",
"a+6 = = + + , + # A b+c+'+d+e+f+g+h+e + + ^ i+/+j+k+l+m+n+o+o+o+o+o+o+p+q+r+k+r+q+s+# + $ e t+u+v+w+7+'+c+x+e % ! # + 1 + ; % = ",
"{ 6 ) - % + e . @ % y+z+A+P.B+C+g+D+E+r % F+G+H+k+k+k+m+I+o+o+o+o+o+o+J+K+k+k+k+K+L+e % r M+D+u+v+e+d+'+N+O+> + = e = ! ; # + = ",
"! . { % P+e.h e.&.Q+e R+S+d+T+~+g+D+U+V+W+q.X+Y+Z+k+`+m+ @o+o+o+o+o+o+.@m++@k++@m+@@#@$@%@&@*@=@v+6+d+#@G.e l =.K ;.e.-@+ % + # ",
"+ ; ! -@!.t t t t t o m ;@>@!+v+g+D+&@,@'@o+)@!@m+m+m+~@{@o+o+o+o+o+o+]@~@m+m+m+^@/@o+>+(@_@D+g+f+6+:@<@4.o t t t t t !.[@% # + ",
"# > }@C t t |@2.t t t t 1@2@3@4@g+D+5@o+o+o+o+6@7@8@9@0@o+o+o+o+o+o+o+o+a@b@c@d@e@o+o+o+f@g@*@g+v+h@i@j@t t t t 2.I t t C r + + ",
"% + w.t t U k@D 2.t t t t W l@m@n@o@'@o+o+o+o+o+o+o+o+o+o+o+o+o+o+o+o+o+o+o+o+o+o+o+o+o+o+f@g+n@p@w W t t t t 2.q@r@U t t s@% % ",
"= e U t F r . % t@u@t t t t C v v@w@o+o+o+o+o+o+o+o+o+o+o+o+o+o+o+o+o+o+o+o+o+o+o+o+o+o+o+o+x@x y@#.t t t t S t@( + d F t U e - ",
") e <.b.z@@ @ ( ; e q S t t t t A@o+o+o+o+o+o+o+o+o+o+o+o+o+o+o+o+o+o+o+o+o+o+o+o+o+o+o+o+o+o+B@t t t t U D e > $ + $ x b.<.r . ",
"+ e C@l.= & e r , , , A D@t t t E@>+F@>+F@F@>+F@F@>+F@F@>+F@>+>+F@>+F@>+F@F@>+F@F@>+F@F@>+F@G@H@t t t W d 7 5 5 e A # % l.C@d 1 ",
"~ + I@>.r K i i J@F K@L@M@N@s t t O@P@Q@S.S.Q@P@Q@Q@Q@Q@S.P@Q@Q@Q@Q@S.Q@Q@Q@Q@R@Q@Q@w@Q@Q@Q@S@t t s Z '.T@U@F U i i K r +.I@4 a ",
"a + e ^ V@t t t t t t t b.v.W@k X@Y@8+S+S+S+S+S+S+8+S+8+S+S+S+8+8+S+S+S+S+8+S+S+S+S+S+8+S+S+Z@X@k T v.b.t t t t t t t V@# e , < ",
"# % % # O 2.t t t t t t t t t t U `@d+P.d+d+P.P.d+d+P.P.d+d+P.P.d+d+P.P.d+d+P.P.d+d+P.P.d+d+ #U t t t t t t t t t t 2.O $ $ $ > ",
"+ * * * .#t t t t t t t t t P J +#t @###@#$#@#%#&#%#%#%#%#$#%#%#%#%#&#%#%#$#@#%#&#*###%#%#=#t +#-#;#t t t t t t t t t >#+ # # ; ",
"# % % e I t `  .&.,#I@G '#)#!#U@v ~#{#]#]#]#]#5.^#5.]#/#/#(#]#_#5.]#:#]#<#5.<#]#5.5.]#]#[#T ~#c.K@!#)#'#G ,#g -#}#` t I e - + $ ",
"; - % |#t |@l ; $ ( } + A j@1#t t o q@2#3#4#4#4#4#4#4#4#4#4#4#4#4#4#4#3#4#4#5#4#4#4#4#3#6#~.o t t 1#j@e % 1 # > > 7#I t 8#) % ; ",
"^ 2 + !#t  .+ ; ' ' ( 9#..t t t t t t 0#n@a#b#n@n@n@n@a#a#n@n@n@a#a#a#a#a#a#n@n@c#n@a#b#d#t t t t t t ..9#; $ > ; > T@t !#2 / ^ ",
"- % $ l !.e % + $ ( e#` t t t b.t t t t f#g#h#g#g#g#h#g#i#j#g#D+j#g#j#h#h#g#g#g#j#g#g#k#t t t t b.t t t ` 3.~ ; + $ A !.-@+ % - ",
"% % + e s@. % % + ~.2.t t t t -#}#h +#F {#l#m#m#n#m#m#m#m#m#m#m#m#m#m#m#m#n#m#m#n#m#o#p#F +#h f -#t t t t 2.q . * ( $ G A , + ) ",
"$ ^ . + A % % = q#2.t t t t F e % e e '#G r#s#t#t#u#u#t#u#u#t#u#u#t#t#u#u#t#u#t#t#v#w#G x#e r % r F t t t t 2.y#= * # e , > , + ",
", $ + % % % ! % s@t t t z#m.e . d A#C t t t B#B.W.W.W.W.W.W.W.W.W.W.W.W.W.W.W.C#D#E#t t t C w.e + e D j t t t s@$ ( % % ; , ~ ' ",
"< > # . * @ @ e |@t ..F#e ; , q X@t t t t t t G#H#I#I#I#I#I#I#I#I#I#I#I#I#I#I#J#K#t t t t t t s D # + e F#P t |@e , ( . $ , L#, ",
"$ ; # = = . # M#t t )#: : . X 2.t t ;.-#Q+N#U d#n.O#P#P#P#P#P#P#P#P#P#P#P#P#Q#R#d#U N#l &.j t t 2.S#@ @ * T#t t U#, $ ! ~ $ , ; ",
"+ + % = ) - & '.t V#e . : : H t t $.e . ^ # > e e e W#X#Y#Z#`# $ $Y#Z#.$+$W#e e e > ~ ; ~ e @$t t #$= * ) e V#t $$% > 3 3 @ ~ + ",
". @ # @ % ^ * d Y X@e % / . A#t t y@+ + # * % ( + . ; $ } - / 8.. = % % % / 8 # ; % . / > , !#t t A#= % % e C %$e ) + $ + @ . @ ",
"= ! $ 9 % ( ( $ v 1#A > ; b e#t <.d + % % * % ( + @ + $ } % % : 6 = ) ^ + + . % ^ + + + ; + r <.t V@+ ' ; A 1#d.# % % + % % . = ",
": . + 1 ~ [ > > c A#r > , 9 e V t F e % + = = % % # + $ $ + ^ 8 = = { % @ # . % % + = = % A F t V e ~ , < d A#~ [ > # % % } + / ",
". ! + + > 4 5 > , , > ' 1 9 $ >.K <.w.+ % * = * % + % + # + # - ) : { = . . . % + > $ % . s@<.K >.< ~ ; $ > # 9 < 4 ' $ [ c < % ",
"% + + + ; [ > ; ( + + + 2 { 6 = + $$&$# * % + # $ ; # % % % % = : = = = { = % > a < [ % - &$*$% % % % % % * * . $ > $ } [ < > $ ",
", [ + % % ; # + + + * = 6 8.& = . $ , # = % + $ , # + / % + + % = + + @ . 6 % , 7 7 =$3 + + & = ) - - = = - = / + $ ~ } ; ; , , ",
"< 4 $ / % + # # ; ; ^ = { 8.= = @ + , ~ , + ~ , [ # . . + > > > + ; ; % % = @ , L#-$c , # + = = = : - % . / % % % $ $ % = - - $ ",
"[ 3 # = @ ! # $ a < $ & % * . = * * $ , ; % % # $ $ + . + > , ~ ~ ; ! + $ % . + , , ; , ; ; + % - 8.= % ( ! % % # > $ % * - = / ",
"% + . = @ ~ , # $ [ ' # $ % ! % # + $ ' + + % + % + + + # > ~ + . . @ % + # + ; , + . @ + $ $ $ % = = + } # % % . . % % - 0 : 8 ",
"= + . . @ + . + ( ^ ( % $ % * = % + + # * 6 % + @ + % 1 + # + : a+6 = = # # , ! ; = = & + + $ 1 ] = . % + ^ / { | | = 0 * ^ - . "};
