/* XPM */
static char * door_xpm[] = {
"64 64 258 2",
"  	c None",
". 	c #EDD293",
"+ 	c #E6C98C",
"@ 	c #EBCE91",
"# 	c #E9C788",
"$ 	c #E3C385",
"% 	c #EBCC8C",
"& 	c #F1CF90",
"* 	c #F1CE8C",
"= 	c #F3D392",
"- 	c #F2D18F",
"; 	c #E4C689",
"> 	c #DDC185",
", 	c #DCBD82",
"' 	c #E1BE82",
") 	c #F8D694",
"! 	c #E5CD91",
"~ 	c #DDC48A",
"{ 	c #F4DB9A",
"] 	c #EDD698",
"^ 	c #EBC887",
"/ 	c #EED08F",
"( 	c #E9C686",
"_ 	c #FDE09D",
": 	c #F9D996",
"< 	c #D5BC83",
"[ 	c #DCBB7F",
"} 	c #E1BD7E",
"| 	c #EEDA9A",
"1 	c #E5D294",
"2 	c #EDD997",
"3 	c #D7BF88",
"4 	c #060606",
"5 	c #D8B77D",
"6 	c #D6B87F",
"7 	c #F1D698",
"8 	c #130D06",
"9 	c #201505",
"0 	c #120C06",
"a 	c #040506",
"b 	c #030506",
"c 	c #000006",
"d 	c #4C3F06",
"e 	c #7C6805",
"f 	c #8E7804",
"g 	c #8F7804",
"h 	c #8E7704",
"i 	c #8D7604",
"j 	c #8C7604",
"k 	c #796605",
"l 	c #4B3E06",
"m 	c #211605",
"n 	c #362404",
"o 	c #372504",
"p 	c #C2A403",
"q 	c #DEBC02",
"r 	c #DFBD02",
"s 	c #261905",
"t 	c #402B04",
"u 	c #432D04",
"v 	c #322105",
"w 	c #251805",
"x 	c #251804",
"y 	c #1C0D04",
"z 	c #7D6804",
"A 	c #C4A503",
"B 	c #E0BE02",
"C 	c #E8C501",
"D 	c #F8D200",
"E 	c #FFD900",
"F 	c #FFD800",
"G 	c #F5D996",
"H 	c #483003",
"I 	c #3E2904",
"J 	c #5D4904",
"K 	c #806A04",
"L 	c #B59903",
"M 	c #E9C601",
"N 	c #FFDA00",
"O 	c #4D3502",
"P 	c #533B02",
"Q 	c #523D0F",
"R 	c #4D3B1D",
"S 	c #4A381D",
"T 	c #4A340F",
"U 	c #432C02",
"V 	c #322102",
"W 	c #241705",
"X 	c #140705",
"Y 	c #7A6605",
"Z 	c #C3A503",
"` 	c #D4B57C",
" .	c #604903",
"..	c #604D1D",
"+.	c #534832",
"@.	c #4B4132",
"#.	c #462F03",
"$.	c #3E2702",
"%.	c #392304",
"&.	c #2C1804",
"*.	c #0E0205",
"=.	c #463A06",
"-.	c #8A7404",
";.	c #B49803",
">.	c #E8C401",
",.	c #DEC98E",
"'.	c #523D0E",
").	c #604C1D",
"!.	c #62532C",
"~.	c #5C5139",
"{.	c #554B39",
"].	c #4E402C",
"^.	c #4A3922",
"/.	c #4C3918",
"(.	c #4F3800",
"_.	c #4F3600",
":.	c #4C3300",
"<.	c #241805",
"[.	c #140604",
"}.	c #120C05",
"|.	c #EAC601",
"1.	c #8D7704",
"2.	c #665535",
"3.	c #645335",
"4.	c #554B38",
"5.	c #4A453B",
"6.	c #4B453B",
"7.	c #5F4904",
"8.	c #483103",
"9.	c #422D04",
"0.	c #3B2504",
"a.	c #261803",
"b.	c #4B463A",
"c.	c #58503E",
"d.	c #6B5733",
"e.	c #6E5830",
"f.	c #61533A",
"g.	c #574E3D",
"h.	c #584F3F",
"i.	c #736B5B",
"j.	c #958C7C",
"k.	c #948979",
"l.	c #6C5E4B",
"m.	c #4A3203",
"n.	c #482F00",
"o.	c #523B02",
"p.	c #533D0F",
"q.	c #42331D",
"r.	c #322410",
"s.	c #251803",
"t.	c #7F6A04",
"u.	c #4B463B",
"v.	c #58503F",
"w.	c #725A2C",
"x.	c #6E5930",
"y.	c #69542C",
"z.	c #999081",
"A.	c #CECAC3",
"B.	c #CBC7C2",
"C.	c #8C847B",
"D.	c #462B00",
"E.	c #5F4804",
"F.	c #484032",
"G.	c #43331D",
"H.	c #3B2502",
"I.	c #372104",
"J.	c #594604",
"K.	c #745B2A",
"L.	c #71571E",
"M.	c #A99F91",
"N.	c #E5E3DE",
"O.	c #E2E0DD",
"P.	c #99938D",
"Q.	c #4A3202",
"R.	c #452900",
"S.	c #5F4C1D",
"T.	c #483100",
"U.	c #352300",
"V.	c #110C06",
"W.	c #755B29",
"X.	c #72571E",
"Y.	c #AAA092",
"Z.	c #E6E4DF",
"`.	c #E2E1DF",
" +	c #9A948E",
".+	c #5D4604",
"++	c #483302",
"@+	c #311E04",
"#+	c #1B1005",
"$+	c #4A3201",
"%+	c #4B453A",
"&+	c #221300",
"*+	c #1D0700",
"=+	c #190000",
"-+	c #CCB37D",
";+	c #E3E1DF",
">+	c #180000",
",+	c #F9DC9B",
"'+	c #725822",
")+	c #745A27",
"!+	c #CEB880",
"~+	c #C7AE7B",
"{+	c #CCAE76",
"]+	c #746C5D",
"^+	c #9D917F",
"/+	c #847153",
"(+	c #6E530A",
"_+	c #71561A",
":+	c #A99E90",
"<+	c #E6E3DF",
"[+	c #978E7E",
"}+	c #CFCBC3",
"|+	c #9E9180",
"1+	c #948A7A",
"2+	c #D5D2CD",
"3+	c #BBB4AB",
"4+	c #BDB5AB",
"5+	c #D7D4CD",
"6+	c #8B837A",
"7+	c #1C0700",
"8+	c #6B5C48",
"9+	c #B1ADA7",
"0+	c #D5D2CE",
"a+	c #B8B2A6",
"b+	c #6A5B47",
"c+	c #F7EAA8",
"d+	c #888178",
"e+	c #C8C5C2",
"f+	c #472D00",
"g+	c #645647",
"h+	c #89827A",
"i+	c #4B3100",
"j+	c #261906",
"k+	c #493F30",
"l+	c #46320F",
"m+	c #452800",
"n+	c #DACB90",
"o+	c #F1C984",
"p+	c #D4C48A",
"q+	c #D2B780",
"r+	c #958B7A",
"s+	c #3B2300",
"t+	c #857F79",
"u+	c #C7C5C2",
"v+	c #462C00",
"w+	c #898179",
"x+	c #C8C6C2",
"y+	c #1E0B00",
"z+	c #554E47",
"A+	c #86807A",
"B+	c #372404",
"C+	c #4B3303",
"D+	c #0B0300",
"E+	c #150000",
"F+	c #221400",
"G+	c #291000",
"H+	c #3C2200",
"I+	c #493000",
". + @ @ . + + # $ # # % % & * = - ; > , ' + $ + = ) = ! ~ + # - { { ) - % + # . % @ + + ; # # @ ] & @ + % ^ % / . . = # $ $ * = ",
"% + @ % + . / . + $ ' ( - ) _ : ) % # , > < < > @ ) & + % % % + + . { % # $ + + + # + ; # # ( + % = @ % % = * # . . % ( [ } / % ",
"- - = % + . ^ % . ; > # - - : ) ) - - % + > , # @ % % @ . % + + + ; ! ! + % @ % . + # , ; + @ = - { = & % | = % = / % $ [ ; ! . ",
"= = : % + $ $ ; 1 ; $ $ 2 { = = = ) ) : & @ + % # # + . - % % + ; > ~ ; % . + % @ @ # ; + @ % . = = * @ . + ; $ + ^ + % # - / = ",
"= * = ; ; 3 , > ~ , # . | { # = 4 4 4 4 4 4 4 4 4 4 4 4 4 4 4 4 4 4 4 4 4 4 4 4 4 4 4 4 4 4 4 4 = % = = . + $ ; [ ' > } % = - - ",
"= % . + ; 5 6 , , < ; + { { 7 = 4 8 9 9 0 a b c a d e f g f f f f h i j j j j j j j j i j k l 4 $ # . : = % > ~ > > ' ( % / / / ",
"/ + % ! ; $ # + # ; + # . { . . 4 m n o m 4 a c 4 k p q r q q q q q q q q q q q q q q r q p k 4 $ + . ) ) = / ] + / # ( $ $ . % ",
"% ! % 1 + ^ % % % @ + + % { ] . 4 s t u v w x y s z A r B r r r r C D E E E E E F F F E F q j 4 5 > . % % * % ] / G - % # } 2 ; ",
"; > [ ! % ^ # % % @ @ % + = . . 4 s t H u t t I t J K f g f f i f L M E N E E E E E E N E r i 4 5 ~ . ( % = | ] ^ - - % % + . + ",
"~ ~ , ! ; # # + . # % @ % = = . 4 s t O P Q R S T U V x W w s X 0 Y Z r B r r C D E E N F q j 4 ` 5 + > . @ | ] ^ - = . + + ; + ",
"+ ~ $ + % ^ / / @ + + % = @ ) = 4 w t P  ...+.@.S #.$.%.%.%.%.&.*.=.k j i -.j ;.>.F E E F q j 4 5 ` , # . + ! ; ^ / / % ,.% % / ",
". = * . # % % / % ! + # = = : = 4 w t '.).!.~.{.].^.^./.(._.:.u v s <.w x [.}.Y Z r B |.D r 1.4 $ > ; + # 1 ; ' $ ^ ; % ,.+ ; . ",
"= = ^ @ # / . : : . + # + @ & { 4 x t R +.~.2.3.4.5.6.+.).7.P 8.9.I 0.%.%.&.*.=.k -.i L >.q h 4 % % % * % 7 % + ; ^ % @ + % % ) ",
"$ + @ # > ; + = . = @ + ; @ % = 4 a.t ^.b.c.d.e.f.g.h.i.j.k.l.m.n.O o.p.R q.r.a.s.y w t.A p e 4 % . % % = = % + $ $ ^ * % # @ + ",
"' , + + ; ; $ + % * % % + . @ # 4 a.t ^.u.v.d.w.x.y.d.z.A.B.C.m.D.P E...+.F.G.I H.I.%.J.z k d 4 $ # % % & + @ $ $ ^ * * = = % # ",
"' ; + + @ ; , , + % * # % % @ , 4 a.t ^.b.c.d.K.K.L.K.M.N.O.P.Q.R.'.S.!.~.{.].^.^./.(.T.U.9 V.4 , < , % & ^ ! ! # ^ * * . % % ; ",
"+ % + ! % + $ > ^ * * ^ ^ / % ( 4 a.t ^.b.c.d.K.W.X.K.Y.Z.`. +Q.R.R +.~.2.3.4.u.6.+.)..+++@+#+4 ' , > + . % % . / % % ( ( + ! # ",
"( = = 2 . % @ % - * * ^ % ; ^ % 4 a.t ^.b.c.d.K.K.L.K.M.N.O.P.$+R.^.%+c.d.e.f.g.h.i.j.k.l.t &+4 % ' 3 $ + + = - = = / # ( . % ^ ",
"$ % * : % @ @ * / ^ ( 1 # % ( # 4 a.t ^.b.c.d.K.K.L.K.M.N.O.P.$+R.^.5.v.d.w.x.y.d.z.A.B.C.t *+4 % + % $ ~ > > $ - . % + % / / % ",
". % * ) = @ ; + $ > 5 ,.+ % / ^ 4 a.t ^.b.c.d.K.K.L.K.M.N.O.P.$+R.^.%+c.d.K.K.L.K.M.N.O.P.t =+4 % = * % > -+6 [ % % = % G ) ) - ",
"= ^ * * = . + # > $ [ ; ; + % * 4 a.t ^.b.c.d.K.K.L.K.M.N.O.P.$+R.^.%+c.d.K.W.X.K.Y.Z.;+ +t >+4 ! ) ,+% $ , 5 [ $ / / + . * - = ",
") ) = * @ . . # $ $ ~ ~ ~ $ # = 4 a.t ^.b.c.d.K.K.L.K.M.N.O.P.$+R.^.%+c.d.K.K.L.K.M.N.O.P.t =+4 + . 7 . # # $ > ~ + / + ; - - : ",
". = & ^ % @ ] # # % . @ ~ , > + 4 a.t ^.b.c.d.K.K.L.K.M.N.O.P.$+R.^.%+c.d.K.K.L.K.M.N.O.P.t =+4 + ! + + # % # ^ + / ; $ ' - / ,+",
"] ) 7 ^ + + . % ( + % ! ; ; > > 4 a.t ^.b.c.d.K.K.L.K.M.N.O.P.$+R.^.%+c.d.K.K.L.K.M.N.O.P.t =+4 , ! + @ % * % # + / + } [ % % G ",
"= = 7 % ! % . % ( % . . % % ( > 4 a.t ^.b.c.d.K.K.L.K.M.N.O.P.$+R.^.%+c.d.K.K.L.K.M.N.O.P.t =+4 > + % + + * * * % ; # $ , + ^ : ",
") { ,+= . . . % + ; # % . % % $ 4 a.t ^.u.g.y.'+)+L.K.M.N.O.P.$+R.^.5.g.y.'+)+L.K.M.N.O.P.t =+4 > $ + + - - - % % + % + # ; # . ",
": = = = = 7 @ ' < < , % . = % % 4 a.t ^.b.c.d.K.K.L.K.M.N.O.P.$+R.^.%+c.d.K.K.L.K.M.N.O.P.t =+4 + , # # % % + % # # $ % % % % = ",
"= + + @ = 7 + , !+~+{+, + % = = 4 x t /.+.]+z.^+/+(+_+:+<+`. +Q.R./.+.]+z.^+/+(+_+:+<+;+ +t >+4 . ; > # % * + $ [ # + . / + % % ",
"% $ ; + % = @ 3 -+~+` < + + . = 4 w t (.).[+A.}+|+L.'+M.N.O.P.Q.R.(.S.[+A.}+|+L.'+M.N.O.P.t =+4 @ % > > $ ; ~ 3 , ( 2 . + $ > > ",
"~ ; + + # @ . # > 3 $ $ ; $ @ % 4 w t _.E.1+B.2+3+:+:+4+5+B.6+m.D._.E.1+B.2+3+:+:+4+5+B.6+t 7+4 % % > , ; % % $ $ $ + / + > < ~ ",
"] . . % # # + ; > % . % # $ $ # 4 s t :.P 8+C.9+0+<+<+5+a+k.b+m.n.:.o.8+C.9+0+<+<+5+a+k.b+t &+4 % + $ ' + % % + % + % + + $ > % ",
"c+7 = = + + , + # . @ . + % > + 4 s t m.m.D.Q.d+e+`.;+B.k.E._.m.m.m.m.D.Q.d+e+`.;+B.k.E._.t w 4 % ; # ( % 7 % % ! # + 1 + ; % = ",
"{ 7 ) - % + $ . @ % + + $ # # . 4 s t m.m.f+D.g+h+ + +6+b+_.i+m.m.m.m.f+D.g+h+ + +6+b+_.i+t j+4 - + $ , ' ; > + = ) = ! ; # + = ",
"! . { % % $ + + + ; + $ # % $ % 4 s t O P Q R S T $+$+Q.Q.m.m.m.m.O o.Q R S T $+$+Q.Q.m.m.t s 4 = % # ' ~ < , > @ ) = + + % + # ",
"+ ; ! % ( + . & = + + , ~ + . / 4 w t o.E.S.+.k+l+R.m+D.n.m.m.m.m.o.E.S.+.k+l+R.m+D.n.m.m.t s 4 ) - - % ; > , # @ % % % . % # + ",
"# > ~ + % . + + . @ # ; % % % @ 4 w t '.).!.~.{.].^.^./.(._.:.Q.m.'.S.!.~.{.].^.^./.(._.:.t j+4 ) - ) ,+= @ ; % % # + . = % + + ",
"% + ~ # @ ] @ * @ @ % ^ / + @ % 4 x t R +.~.2.3.4.5.5.+.S.E.o.Q.m.R +.~.2.3.4.5.5.+.S.E.o.t w 4 { = - ) = - . - $ % + = ) % % % ",
"= . @ + . . . % + @ ^ + % # $ ~ 4 a.t ^.b.c.d.e.f.g.h.i.j.k.l.$+n.^.%+c.d.e.f.g.h.i.j.k.l.t &+4 % % % % - * = - ( + $ % . = = - ",
") { . @ @ @ @ ( ; ~ $ ; + > > > 4 a.t ^.u.v.d.w.x.y.d.z.A.B.C.$+D.^.5.v.d.w.x.y.d.z.A.B.C.t 7+4 % $ # ; # [ , > $ + $ % % % ^ . ",
"+ % . * = & @ + , , , ; > > , 6 4 a.t ^.b.c.d.K.K.L.K.M.N.O.P.$+R.^.%+c.d.K.K.L.K.M.N.O.P.t =+4 $ 3 3 < 6 -+6 6 , # # % ( % $ 1 ",
"~ + @ * = & . + } ; ; + ; ~ , 6 4 a.t ^.b.c.d.K.W.X.K.Y.Z.`. +$+R.^.%+c.d.K.W.X.K.Y.Z.;+ +t >+4 $ n+3 3 [ [ 6 5 ~ # @ - o+% 5 p+",
"p++ @ ^ $ + @ * # % / . + ; [ -+4 a.t ^.b.c.d.K.K.L.K.M.N.O.P.$+R.^.%+c.d.K.K.L.K.M.N.O.P.t =+4 + ~ < > $ % % ( > ~ ; % # ; , < ",
"# % % # ; ! @ @ # % . : . % ; > 4 a.t ^.b.c.d.K.K.L.K.M.N.O.P.$+R.^.%+c.d.K.K.L.K.M.N.O.P.t =+4 + ~ ~ % % - - % + % + % $ $ $ > ",
"+ * * * . = + + $ + ( / . - / $ 4 a.t ^.b.c.d.K.K.L.K.M.N.O.P.$+R.^.%+c.d.K.K.L.K.M.N.O.P.t =+4 + ; > % * - % % + % % @ + # # ; ",
"# % % = . . @ ; , $ > + % % % ( 4 a.t ^.b.c.d.K.K.L.K.M.N.O.P.$+R.^.%+c.d.K.K.L.K.M.N.O.P.t =+4 . + $ % % / + # ; / % / : - + $ ",
"; - % ! + @ + ; $ ( } + # % ( # 4 a.t ^.b.c.d.K.K.L.K.M.N.O.P.$+R.^.%+c.d.K.K.L.K.M.N.O.P.t =+4 + ; > ~ % 1 # > > ; ; + = ) % ; ",
"^ 2 + ,.+ / + ; ' ' ( % + ; , $ 4 a.t ^.b.c.d.K.K.L.K.M.N.O.P.$+R.^.%+c.d.K.K.L.K.M.N.O.P.t =+4 > $ $ + + ; $ > ; > > [ # 2 / ^ ",
"- % $ n+% % % + $ ( ^ % % + # $ 4 a.t ^.b.c.d.K.K.L.K.M.N.O.P.$+R.^.%+c.d.K.K.L.K.M.N.O.P.t =+4 , > # + + > ~ ; + $ [ 5 5 + % - ",
"% % + % + . % % + # % # % . . % 4 a.t ^.b.c.d.K.K.L.K.M.N.O.P.$+R.^.%+c.d.K.K.L.K.M.N.O.P.t =+4 ( + % % + $ + . * ( $ [ -+, + ) ",
"$ ^ . + + % % = % % # # + + = = 4 a.t ^.b.c.d.K.K.L.K.M.N.O.P.$+R.^.%+c.d.K.K.L.K.M.N.O.P.t =+4 % # % % = % @ = = * # $ , > , + ",
", $ + % % % ! % + @ + + + + $ . 4 a.t ^.b.c.d.K.K.L.K.M.N.O.P.$+R.^.%+c.d.K.K.L.K.M.N.O.P.t =+4 + ; $ $ G . + ; $ ( % % ; , ~ ' ",
"< > # . * @ @ ; $ + + . @ ; , ; 4 a.t ^.u.g.y.'+)+L.K.M.N.O.P.$+R.^.5.g.y.'+)+L.K.M.N.O.P.t =+4 % # + % : { @ ; ~ , ( . $ , q+, ",
"$ ; # = = . # # + @ @ : : . + ~ 4 a.t ^.b.c.d.K.K.L.K.M.N.O.P.$+R.^.%+c.d.K.K.L.K.M.N.O.P.t =+4 * - @ @ * { . ; , , $ ! ~ $ , ; ",
"+ + % = ) - & * . . + . : : . # 4 x t /.+.]+z.^+/+(+_+:+<+`. +Q.R./.+.]+z.^+/+(+_+:+<+;+ +t >+4 * = = * ) ,+_ { - % > 3 3 @ ~ + ",
". @ # @ % ^ * % @ @ % % / . . % 4 w t (.).[+A.}+|+L.'+M.N.O.P.Q.R.(.S.[+A.}+|+L.'+M.N.O.P.t =+4 * = = % % % @ { - ) + $ + @ . @ ",
"= ! $ n+% ( ( $ , 3 > > ; ,.> > 4 w t _. .r+B.2+3+:+:+4+5+B.6+m.D._.E.1+B.2+3+:+:+4+5+B.6+t 7+4 [ > + ' ; , ~ 1 # % % + % % . = ",
": . + 1 ~ [ > > ` < ; > , n+3 3 4 s t :.P 8+C.9+0+<+<+5+a+k.b+m.n.:.o.8+C.9+0+<+<+5+a+k.b+t &+4 5 < ~ , < < 3 ~ [ > # % % } + / ",
". ! + + > 5 6 > , , > ' 1 n+$ p+4 9 n t t s+t t+u+;+;+B.k.E._.m.m.m.m.v+m.w+x+;+;+B.k.E._.t w 4 < < ~ ; $ > # n+< 5 ' $ [ ` < % ",
"% + + + ; [ > ; ( + + + 2 { 7 = 4 8 9 j+w y+7+z+A+ + +6+b+_.i+m.m.m.m.f+D.g+h+ + +6+b+_.i+t j+4 % % % % % * * . $ > $ } [ < > $ ",
", [ + % % ; # + + + * = 7 ,+& = 4 4 4 4 4 a 4 9 B+t t t t t t t t t t t t t t u H m.m.C+m.t s 4 ) - - = = - = / + $ ~ } ; ; , , ",
"< 5 $ / % + # # ; ; ^ = { ,+= = @ + , ~ , + b D+E+>+=+7+&+w j+s s s s j+s F+*+G+H+D.I+m.m.t s 4 = : - % . / % % % $ $ % = - - $ ",
"[ 3 # = @ ! # $ p+< $ & % * . = * * $ , ; % 4 4 4 4 4 4 4 4 4 4 4 4 4 4 4 a 4 9 o t t t t o 9 4 - ,+= % ( ! % % # > $ % * - = / ",
"% + . = @ ~ , # $ [ ' # $ % ! % # + $ ' + + % + % + + + # > ~ + . . @ % + # b 0 9 s s s s 9 8 4 % = = + } # % % . . % % - o+: G ",
"= + . . @ + . + ( ^ ( % $ % * = % + + # * 7 % + @ + % 1 + # + : c+7 = = # # 4 4 4 4 4 4 4 4 4 4 ] = . % + ^ / { | | = o+* ^ - . "};
